<svg xmlns="http://www.w3.org/2000/svg" viewBox="0 0 36 36">
  <!-- Money bag shape similar to 💰 emoji -->
  <path fill="#FFCC4D" d="M35 22c0 8.284-6.716 15-15 15H7c-4.418 0-8-3.582-8-8 0-3.866 2.383-6.793 4.127-9.178C5.44 16.626 7.5 14.5 7.5 12c0-.829.671-1.5 1.5-1.5h18c.829 0 1.5.671 1.5 1.5 0 2.5 2.06 4.626 4.373 7.822C34.617 22.207 35 24.134 35 22z"/>
  <path fill="#FFE8B6" d="M28.5 12c0 2.5 2.06 4.626 4.373 7.822.858 1.186 1.394 2.315 1.749 3.428C33.129 15.389 26.072 10.5 18 10.5S2.871 15.389 1.378 23.25c.355-1.113.891-2.242 1.749-3.428C5.44 16.626 7.5 14.5 7.5 12c0-.829.671-1.5 1.5-1.5h18c.829 0 1.5.671 1.5 1.5z"/>
  <ellipse fill="#FFAC33" cx="18" cy="10.5" rx="9" ry="3"/>
  <path fill="#FFCC4D" d="M27 7.5c0 1.657-4.029 3-9 3s-9-1.343-9-3c0-1.656 4.029-3 9-3s9 1.344 9 3z"/>
  <path fill="#FFE8B6" d="M24.5 6.5c0 .828-2.91 1.5-6.5 1.5s-6.5-.672-6.5-1.5S14.41 5 18 5s6.5.672 6.5 1.5z"/>
  <path fill="#FFAC33" d="M21 4c0 1.657-1.343 3-3 3s-3-1.343-3-3c0-.171.029-.335.062-.5h5.876c.033.165.062.329.062.5z"/>
  <path fill="#FFCC4D" d="M21 2c0 1.105-.895 2-2 2h-2c-1.105 0-2-.895-2-2s.895-2 2-2h2c1.105 0 2 .895 2 2z"/>
  <!-- Rupee symbol -->
  <text x="18" y="28" font-family="Arial, sans-serif" font-size="14" font-weight="bold" fill="#5C4813" text-anchor="middle">₹</text>
</svg>
